<svg width="144" height="144" viewBox="0 0 144 144" fill="none" xmlns="http://www.w3.org/2000/svg">
<path d="M71.9443 2C110.574 2.00002 141.888 33.3267 141.889 71.9688C141.889 110.611 110.574 141.938 71.9443 141.938C33.3145 141.938 2 110.611 2 71.9688C2.00021 33.3267 33.3146 2 71.9443 2Z" fill="#FF8311" stroke="#FFF8F0" stroke-width="4"/>
<path d="M100.196 107.385C100.026 106.709 95.7868 90.8496 71.9421 90.8496C48.0937 90.8496 43.8585 106.709 43.6886 107.385C43.5894 107.784 43.6231 108.204 43.7846 108.581C43.9461 108.959 44.2265 109.273 44.5832 109.477C44.9415 109.68 45.3557 109.761 45.7639 109.708C46.1722 109.656 46.5525 109.473 46.848 109.186C46.9197 109.114 54.2237 102.178 71.9421 102.178C89.6605 102.178 96.9683 109.114 97.0362 109.182C97.3284 109.471 97.7066 109.657 98.1138 109.712C98.5209 109.768 98.9349 109.689 99.2935 109.488C99.6533 109.285 99.9365 108.969 100.099 108.589C100.262 108.209 100.296 107.786 100.196 107.385Z" fill="black"/>
<path d="M49.2961 68.1934C54.5078 68.1934 58.7328 62.2763 58.7328 54.9772C58.7328 47.6781 54.5078 41.761 49.2961 41.761C44.0843 41.761 39.8594 47.6781 39.8594 54.9772C39.8594 62.2763 44.0843 68.1934 49.2961 68.1934Z" fill="black"/>
<path d="M94.593 68.1934C99.8047 68.1934 104.03 62.2763 104.03 54.9772C104.03 47.6781 99.8047 41.761 94.593 41.761C89.3812 41.761 85.1562 47.6781 85.1562 54.9772C85.1562 62.2763 89.3812 68.1934 94.593 68.1934Z" fill="black"/>
<path d="M94.593 68.1934C99.8047 68.1934 104.03 62.2763 104.03 54.9772C104.03 47.6781 99.8047 41.761 94.593 41.761C89.3812 41.761 85.1562 47.6781 85.1562 54.9772C85.1562 62.2763 89.3812 68.1934 94.593 68.1934Z" fill="black"/>
</svg>
