<svg width="144" height="144" viewBox="0 0 144 144" fill="none" xmlns="http://www.w3.org/2000/svg">
<path d="M71.9443 2C110.574 2.00002 141.888 33.3311 141.889 71.9688C141.889 110.61 110.574 141.938 71.9443 141.938C33.3188 141.938 2 110.611 2 71.9688C2.00021 33.331 33.3189 2 71.9443 2Z" fill="#FFC700" stroke="#FFF8F0" stroke-width="4"/>
<path d="M47.4094 71.9692C52.6211 71.9692 56.8461 62.6709 56.8461 51.2008C56.8461 39.7308 52.6211 30.4325 47.4094 30.4325C42.1976 30.4325 37.9727 39.7308 37.9727 51.2008C37.9727 62.6709 42.1976 71.9692 47.4094 71.9692Z" fill="black"/>
<path d="M96.4797 71.9692C101.691 71.9692 105.916 62.6709 105.916 51.2008C105.916 39.7308 101.691 30.4325 96.4797 30.4325C91.2679 30.4325 87.043 39.7308 87.043 51.2008C87.043 62.6709 91.2679 71.9692 96.4797 71.9692Z" fill="black"/>
<path d="M71.9434 87.0732C58.2677 87.0732 49.1934 85.4797 37.9712 83.2972C35.4082 82.8025 30.4219 83.2972 30.4219 90.8493C30.4219 105.954 47.7665 124.834 71.9434 124.834C96.1165 124.834 113.465 105.954 113.465 90.8493C113.465 83.2972 108.479 82.7987 105.916 83.2972C94.6934 85.4797 85.6191 87.0732 71.9434 87.0732Z" fill="black"/>
<path d="M37.9727 90.8491C37.9727 90.8491 49.2967 94.6252 71.9448 94.6252C94.5929 94.6252 105.917 90.8491 105.917 90.8491C105.917 90.8491 98.3676 105.953 71.9448 105.953C45.522 105.953 37.9727 90.8491 37.9727 90.8491Z" fill="white"/>
</svg>
