<svg width="144" height="144" viewBox="0 0 144 144" fill="none" xmlns="http://www.w3.org/2000/svg">
<path d="M71.9443 2C110.574 2.00002 141.888 33.3311 141.889 71.9688C141.889 110.61 110.574 141.938 71.9443 141.938C33.3188 141.938 2 110.611 2 71.9688C2.00021 33.331 33.3189 2 71.9443 2Z" fill="#FF8311" stroke="#FFF8F0" stroke-width="4"/>
<path d="M47.4094 79.5216C52.6211 79.5216 56.8461 73.6045 56.8461 66.3053C56.8461 59.0062 52.6211 53.0891 47.4094 53.0891C42.1976 53.0891 37.9727 59.0062 37.9727 66.3053C37.9727 73.6045 42.1976 79.5216 47.4094 79.5216Z" fill="black"/>
<path d="M96.4797 79.5216C101.691 79.5216 105.916 73.6045 105.916 66.3053C105.916 59.0062 101.691 53.0891 96.4797 53.0891C91.2679 53.0891 87.043 59.0062 87.043 66.3053C87.043 73.6045 91.2679 79.5216 96.4797 79.5216Z" fill="black"/>
<path d="M98.3663 102.178H45.5208C44.5197 102.178 43.5596 101.78 42.8517 101.072C42.1438 100.364 41.7461 99.4031 41.7461 98.4017C41.7461 97.4002 42.1438 96.4397 42.8517 95.7316C43.5596 95.0234 44.5197 94.6256 45.5208 94.6256H98.3663C99.3675 94.6256 100.328 95.0234 101.035 95.7316C101.743 96.4397 102.141 97.4002 102.141 98.4017C102.141 99.4031 101.743 100.364 101.035 101.072C100.328 101.78 99.3675 102.178 98.3663 102.178Z" fill="black"/>
</svg>
