<svg width="144" height="144" viewBox="0 0 144 144" fill="none" xmlns="http://www.w3.org/2000/svg">
<path d="M71.9443 2C110.574 2.00002 141.888 33.3267 141.889 71.9688C141.889 110.611 110.574 141.938 71.9443 141.938C33.3145 141.938 2 110.611 2 71.9688C2.00021 33.3267 33.3146 2 71.9443 2Z" fill="#FFC700" stroke="#FFF8F0" stroke-width="4"/>
<path d="M43.6896 93.1944C43.8594 93.8703 48.0984 109.73 71.9431 109.73C95.7915 109.73 100.027 93.8703 100.197 93.1944C100.296 92.7958 100.262 92.3757 100.101 91.9981C99.939 91.6205 99.6586 91.306 99.302 91.1025C98.9437 90.8998 98.5295 90.8187 98.1212 90.8711C97.713 90.9235 97.3327 91.1067 97.0372 91.3932C96.9654 91.465 89.6614 98.4016 71.9431 98.4016C54.2247 98.4016 46.9169 91.465 46.849 91.397C46.5567 91.1081 46.1785 90.9221 45.7714 90.8669C45.3643 90.8117 44.9502 90.8904 44.5917 91.0911C44.2319 91.2945 43.9487 91.6105 43.7857 91.9904C43.6228 92.3704 43.589 92.7934 43.6896 93.1944Z" fill="black"/>
<path d="M49.2961 68.1933C54.5078 68.1933 58.7328 62.2762 58.7328 54.9771C58.7328 47.678 54.5078 41.7609 49.2961 41.7609C44.0843 41.7609 39.8594 47.678 39.8594 54.9771C39.8594 62.2762 44.0843 68.1933 49.2961 68.1933Z" fill="black"/>
<path d="M94.593 68.1933C99.8047 68.1933 104.03 62.2762 104.03 54.9771C104.03 47.678 99.8047 41.7609 94.593 41.7609C89.3812 41.7609 85.1562 47.678 85.1562 54.9771C85.1562 62.2762 89.3812 68.1933 94.593 68.1933Z" fill="black"/>
</svg>
