<svg width="144" height="144" viewBox="0 0 144 144" fill="none" xmlns="http://www.w3.org/2000/svg">
<path d="M71.9443 2C110.574 2.00002 141.888 33.3311 141.889 71.9688C141.889 110.61 110.574 141.938 71.9443 141.938C33.3188 141.938 2 110.611 2 71.9688C2.00021 33.331 33.3189 2 71.9443 2Z" fill="#F24E1E" stroke="#FFF8F0" stroke-width="4"/>
<path d="M101.113 102.8C100.943 102.124 96.7043 86.2646 72.8596 86.2646C49.0111 86.2646 44.7759 102.124 44.6061 102.8C44.5069 103.199 44.5406 103.619 44.7021 103.996C44.8636 104.374 45.144 104.688 45.5007 104.892C45.8593 105.093 46.2732 105.174 46.6812 105.121C47.0891 105.069 47.4693 104.887 47.7655 104.601C47.8372 104.529 55.1412 97.5928 72.8596 97.5928C90.5779 97.5928 97.8857 104.529 97.9537 104.597C98.2459 104.886 98.6241 105.072 99.0312 105.127C99.4384 105.183 99.8524 105.104 100.211 104.903C100.571 104.7 100.854 104.384 101.017 104.004C101.18 103.624 101.214 103.201 101.113 102.8ZM64.2042 55.2744C51.9176 42.9833 32.1723 42.8398 31.3381 42.8398C30.3661 42.8828 29.4482 43.2992 28.7755 44.0023C28.1028 44.7053 27.727 45.6409 27.7266 46.6141C27.7261 47.5873 28.1009 48.5233 28.7729 49.227C29.4449 49.9307 30.3624 50.348 31.3343 50.392C31.4438 50.392 38.6006 50.475 46.3689 53.1749C44.1305 55.5916 42.6621 59.345 42.6621 63.6082C42.6621 70.9111 46.886 76.8244 52.0988 76.8244C57.3117 76.8244 61.5355 70.9111 61.5355 63.6082C61.5355 62.9512 61.4638 62.3243 61.3959 61.6937C61.4449 61.6937 61.4902 61.7202 61.5355 61.7202C62.2828 61.7218 63.0137 61.5013 63.6355 61.0867C64.2572 60.6721 64.7418 60.082 65.0278 59.3914C65.3137 58.7007 65.3881 57.9407 65.2415 57.2077C65.0948 56.4747 64.7338 55.8018 64.2042 55.2744ZM114.381 42.8398C113.547 42.8398 93.8053 42.9833 81.5149 55.2744C80.9853 55.8018 80.6243 56.4747 80.4777 57.2077C80.3311 57.9407 80.4055 58.7007 80.6914 59.3914C80.9773 60.082 81.4619 60.6721 82.0837 61.0867C82.7055 61.5013 83.4364 61.7218 84.1836 61.7202C84.2327 61.7202 84.2742 61.6937 84.3195 61.6937C84.2591 62.3243 84.1836 62.9512 84.1836 63.6082C84.1836 70.9111 88.4075 76.8244 93.6203 76.8244C98.8332 76.8244 103.057 70.9111 103.057 63.6082C103.057 59.345 101.589 55.5916 99.3503 53.1749C104.201 51.519 109.267 50.5814 114.389 50.392C114.884 50.3915 115.375 50.2933 115.833 50.1031C116.291 49.9129 116.706 49.6343 117.057 49.2833C117.407 48.9323 117.684 48.5158 117.874 48.0575C118.063 47.5991 118.16 47.108 118.16 46.6121C118.159 46.1163 118.061 45.6253 117.871 45.1674C117.681 44.7094 117.402 44.2934 117.051 43.9432C116.7 43.5929 116.284 43.3151 115.826 43.1258C115.368 42.9365 114.877 42.8393 114.381 42.8398Z" fill="black"/>
</svg>
